<svg width="108" height="63" viewBox="0 0 108 63" fill="none" xmlns="http://www.w3.org/2000/svg">
<path d="M70.95 21.47H55.6531V24.4091H70.95V21.47Z" fill="#03E9CA"/>
<path d="M52.3549 20.0601V16.8104L70.9195 8.30402V11.5537L52.3549 20.0601Z" fill="#BF5DFF"/>
<path d="M52.3738 21.47H37.05V24.4091H52.3738V21.47Z" fill="#007BFF"/>
<path d="M70.9384 25.7344H37.05V28.6253H70.9384V25.7344Z" fill="#211D4F"/>
<path d="M45.509 11.2455C42.7396 11.495 40.4938 13.3959 39.936 15.8709L37.05 14.549C37.4553 13.2981 38.1541 12.1654 39.0732 11.2186C40.6789 9.56231 42.9565 8.47527 45.509 8.32277C45.7145 8.31054 45.9217 8.30402 46.1304 8.30402C48.5125 8.30402 50.6898 9.11706 52.3542 10.4594C52.6486 10.6967 52.9267 10.9495 53.1868 11.2186C53.4714 11.5113 53.7349 11.8228 53.9746 12.1499C54.4101 12.7419 54.7689 13.3861 55.038 14.0703L53.9746 14.558L52.3542 15.3001L52.1871 15.3767C51.4009 12.9711 48.9871 11.2194 46.1296 11.2194L45.509 11.2455Z" fill="#FFCA6A"/>
<path d="M8.08681 50.1588C8.03869 50.1107 8.01505 50.052 8.01505 49.9811C8.01505 49.9109 8.03869 49.8522 8.08681 49.8057C8.13492 49.7593 8.19201 49.7364 8.25969 49.7364C8.32738 49.7364 8.38446 49.7601 8.43257 49.8057C8.48069 49.8522 8.50434 49.9109 8.50434 49.9811C8.50434 50.0512 8.48069 50.1107 8.43257 50.1588C8.38446 50.207 8.32738 50.2306 8.25969 50.2306C8.19201 50.2306 8.13492 50.207 8.08681 50.1588ZM8.42768 50.7256V53.3466H8.0917V50.7256H8.42768Z" fill="#211D4F"/>
<path d="M13.9144 51.0418C14.1076 51.235 14.2047 51.5164 14.2047 51.8842V53.4206H13.8736V51.9233C13.8736 51.6387 13.8051 51.421 13.6673 51.2709C13.5294 51.1209 13.3427 51.045 13.1054 51.045C12.8591 51.045 12.6618 51.1266 12.515 51.2897C12.3674 51.4528 12.294 51.6901 12.294 52V53.4206H11.9629V51.9233C11.9629 51.6387 11.8944 51.421 11.7566 51.2709C11.6188 51.1209 11.4304 51.045 11.1898 51.045C10.9435 51.045 10.7462 51.1266 10.5994 51.2897C10.4526 51.4528 10.3784 51.6901 10.3784 52V53.4206H10.0424V50.7996H10.3784V51.2505C10.4616 51.0874 10.5798 50.9635 10.734 50.8787C10.8873 50.7939 11.0585 50.7515 11.2477 50.7515C11.4752 50.7515 11.6742 50.8061 11.8455 50.9146C12.0167 51.023 12.1407 51.1837 12.2173 51.3949C12.2875 51.1869 12.4081 51.0279 12.5794 50.917C12.7507 50.8069 12.9447 50.7515 13.1625 50.7515C13.4707 50.7515 13.7211 50.8477 13.9144 51.0418Z" fill="#211D4F"/>
<path d="M19.6418 51.0418C19.8351 51.235 19.9321 51.5164 19.9321 51.8842V53.4206H19.601V51.9233C19.601 51.6387 19.5325 51.421 19.3947 51.2709C19.2569 51.1209 19.0701 51.045 18.8328 51.045C18.5866 51.045 18.3892 51.1266 18.2424 51.2897C18.0948 51.4528 18.0214 51.6901 18.0214 52V53.4206H17.6903V51.9233C17.6903 51.6387 17.6218 51.421 17.484 51.2709C17.3462 51.1209 17.1578 51.045 16.9173 51.045C16.671 51.045 16.4736 51.1266 16.3268 51.2897C16.1801 51.4528 16.1058 51.6901 16.1058 52V53.4206H15.7699V50.7996H16.1058V51.2505C16.189 51.0874 16.3073 50.9635 16.4614 50.8787C16.6147 50.7939 16.786 50.7515 16.9752 50.7515C17.2027 50.7515 17.4017 50.8061 17.5729 50.9146C17.7442 51.023 17.8681 51.1837 17.9448 51.3949C18.0149 51.1869 18.1356 51.0279 18.3068 50.917C18.4781 50.8069 18.6722 50.7515 18.8899 50.7515C19.1974 50.7515 19.4477 50.8477 19.6418 51.0418Z" fill="#211D4F"/>
<path d="M23.7921 50.7515V53.3724H23.4561V52.9117C23.3795 53.0748 23.2612 53.1996 23.1006 53.286C22.9407 53.3724 22.7613 53.4157 22.5632 53.4157C22.2492 53.4157 21.9931 53.3186 21.795 53.1254C21.5968 52.9321 21.4973 52.6507 21.4973 52.283V50.7515H21.8284V52.2446C21.8284 52.5292 21.8993 52.747 22.0421 52.897C22.1848 53.0479 22.3789 53.1229 22.6251 53.1229C22.8779 53.1229 23.0794 53.043 23.2302 52.8832C23.3803 52.7233 23.4561 52.4876 23.4561 52.1778V50.7523H23.7921V50.7515Z" fill="#211D4F"/>
<path d="M27.3945 51.0418C27.5926 51.235 27.6921 51.5164 27.6921 51.8842V53.4206H27.361V51.9233C27.361 51.6387 27.2901 51.421 27.1474 51.2709C27.0047 51.1209 26.8106 51.045 26.5643 51.045C26.3115 51.045 26.1101 51.125 25.9592 51.2848C25.8083 51.4446 25.7333 51.6803 25.7333 51.9902V53.4206H25.3973V50.7996H25.7333V51.2456C25.8165 51.0858 25.9364 50.9635 26.093 50.8787C26.2495 50.7939 26.4273 50.7515 26.6255 50.7515C26.9394 50.7515 27.1955 50.8477 27.3945 51.0418Z" fill="#211D4F"/>
<path d="M29.3239 50.1588C29.2758 50.1106 29.2522 50.0519 29.2522 49.981C29.2522 49.9108 29.2758 49.8521 29.3239 49.8056C29.372 49.7592 29.4291 49.7363 29.4968 49.7363C29.5645 49.7363 29.6216 49.76 29.6697 49.8056C29.7178 49.8521 29.7415 49.9108 29.7415 49.981C29.7415 50.0511 29.7178 50.1106 29.6697 50.1588C29.6216 50.2069 29.5645 50.2305 29.4968 50.2305C29.4291 50.2305 29.372 50.2069 29.3239 50.1588ZM29.6648 50.7255V53.3465H29.3288V50.7255H29.6648Z" fill="#211D4F"/>
<path d="M31.4099 53.0935H32.7823V53.3716H31.0258V53.0935L32.3746 51.0295H31.0494V50.7515H32.7579V51.0295L31.4099 53.0935Z" fill="#211D4F"/>
<path d="M34.2299 51.3875C34.3367 51.1845 34.486 51.0279 34.676 50.917C34.866 50.8069 35.0813 50.7515 35.3218 50.7515C35.5714 50.7515 35.7867 50.8094 35.9677 50.9243C36.1487 51.0393 36.2792 51.1869 36.3591 51.3663V50.7906H36.6951V53.4116H36.3591V52.831C36.276 53.0104 36.1438 53.158 35.9628 53.2746C35.7818 53.3912 35.5665 53.4499 35.3169 53.4499C35.0804 53.4499 34.8668 53.3936 34.676 53.2819C34.4851 53.1702 34.3367 53.0112 34.2299 52.8065C34.1222 52.6018 34.0692 52.3645 34.0692 52.0962C34.0692 51.8271 34.1231 51.5914 34.2299 51.3875ZM36.2295 51.5441C36.143 51.3843 36.0256 51.2611 35.8764 51.1747C35.7271 51.0883 35.5632 51.045 35.3846 51.045C35.1987 51.045 35.0323 51.0866 34.8855 51.1698C34.7379 51.253 34.6221 51.3737 34.5373 51.5319C34.4525 51.6901 34.4101 51.8785 34.4101 52.0962C34.4101 52.3107 34.4525 52.4991 34.5373 52.6605C34.6221 52.822 34.7379 52.9451 34.8855 53.0299C35.0323 53.1147 35.1995 53.1572 35.3846 53.1572C35.564 53.1572 35.7279 53.1139 35.8764 53.0275C36.0248 52.9411 36.143 52.8179 36.2295 52.6581C36.3159 52.4982 36.3591 52.3123 36.3591 52.1011C36.3591 51.8891 36.3159 51.704 36.2295 51.5441Z" fill="#211D4F"/>
<path d="M38.7229 51.0726V52.6995C38.7229 52.8594 38.753 52.9703 38.8142 53.0306C38.8745 53.0918 38.9822 53.122 39.1355 53.122H39.4429V53.4098H39.0833C38.8468 53.4098 38.6707 53.3544 38.5557 53.2443C38.4407 53.1342 38.3828 52.9523 38.3828 52.6995V51.0726H38.0183V50.7897H38.3828V50.1324H38.7237V50.7897H39.4438V51.0726H38.7229Z" fill="#211D4F"/>
<path d="M40.8298 50.1588C40.7816 50.1106 40.758 50.0519 40.758 49.981C40.758 49.9108 40.7816 49.8521 40.8298 49.8056C40.8779 49.7592 40.935 49.7363 41.0026 49.7363C41.0703 49.7363 41.1274 49.76 41.1755 49.8056C41.2236 49.8521 41.2473 49.9108 41.2473 49.981C41.2473 50.0511 41.2236 50.1106 41.1755 50.1588C41.1274 50.2069 41.0703 50.2305 41.0026 50.2305C40.935 50.2305 40.8779 50.2069 40.8298 50.1588ZM41.1706 50.7255V53.3465H40.8347V50.7255H41.1706Z" fill="#211D4F"/>
<path d="M43.2657 53.2836C43.0692 53.1735 42.9135 53.0161 42.8001 52.813C42.6868 52.61 42.6297 52.3718 42.6297 52.1003C42.6297 51.8279 42.6876 51.5906 42.8026 51.3876C42.9175 51.1845 43.0741 51.0279 43.2731 50.917C43.4713 50.8069 43.6939 50.7515 43.9402 50.7515C44.1864 50.7515 44.4099 50.8069 44.6097 50.917C44.8095 51.0271 44.966 51.1845 45.0802 51.3876C45.1936 51.5906 45.2506 51.8287 45.2506 52.1003C45.2506 52.3694 45.1927 52.6059 45.0778 52.8106C44.9628 53.0153 44.8038 53.1727 44.6023 53.2836C44.4009 53.3937 44.1767 53.4491 43.9304 53.4491C43.6841 53.4491 43.4623 53.3945 43.2657 53.2836ZM44.4107 53.0389C44.5575 52.9606 44.6774 52.8424 44.7679 52.6834C44.8592 52.5251 44.9049 52.3303 44.9049 52.1003C44.9049 51.8695 44.86 51.6754 44.7703 51.5172C44.6806 51.359 44.5624 51.2408 44.4148 51.1617C44.2672 51.0834 44.1073 51.0442 43.9345 51.0442C43.7616 51.0442 43.6017 51.0834 43.4541 51.1617C43.3065 51.2399 43.1891 51.3582 43.101 51.5172C43.0129 51.6754 42.9689 51.8703 42.9689 52.1003C42.9689 52.3311 43.0129 52.5251 43.101 52.6834C43.1891 52.8416 43.3057 52.9598 43.4517 53.0389C43.5968 53.1172 43.7567 53.1563 43.9296 53.1563C44.1033 53.1563 44.2631 53.1172 44.4107 53.0389Z" fill="#211D4F"/>
<path d="M48.7364 51.0418C48.9345 51.235 49.034 51.5164 49.034 51.8842V53.4206H48.7029V51.9233C48.7029 51.6387 48.632 51.421 48.4893 51.2709C48.3466 51.1209 48.1525 51.045 47.9062 51.045C47.6534 51.045 47.452 51.125 47.3011 51.2848C47.1502 51.4446 47.0752 51.6803 47.0752 51.9902V53.4206H46.7392V50.7996H47.0752V51.2456C47.1584 51.0858 47.2783 50.9635 47.4348 50.8787C47.5914 50.7939 47.7692 50.7515 47.9674 50.7515C48.2821 50.7515 48.5382 50.8477 48.7364 51.0418Z" fill="#211D4F"/>
<path d="M51.2637 50.886C51.4154 50.7963 51.6021 50.7515 51.8231 50.7515V51.1021H51.7318C51.4887 51.1021 51.293 51.1674 51.1462 51.2987C50.9995 51.4299 50.9252 51.6493 50.9252 51.9559V53.4197H50.5893V50.7988H50.9252V51.2644C50.9995 51.1013 51.112 50.9749 51.2637 50.886Z" fill="#211D4F"/>
<path d="M55.5328 52.2308H53.3587C53.3685 52.4289 53.4166 52.5985 53.503 52.7396C53.5895 52.8807 53.7028 52.9867 53.8439 53.0585C53.985 53.1302 54.1383 53.1661 54.3046 53.1661C54.5224 53.1661 54.7059 53.1131 54.8543 53.0079C55.0035 52.9027 55.1014 52.76 55.1495 52.5806H55.505C55.4406 52.8367 55.3044 53.0454 55.0949 53.2069C54.8853 53.3684 54.6219 53.4491 54.3055 53.4491C54.0592 53.4491 53.8382 53.3937 53.6433 53.2836C53.4484 53.1735 53.2951 53.0161 53.185 52.813C53.0749 52.61 53.0194 52.3718 53.0194 52.1003C53.0194 51.8279 53.0741 51.5898 53.1825 51.3851C53.291 51.1804 53.4435 51.0238 53.6384 50.9146C53.8333 50.8061 54.0559 50.7515 54.3055 50.7515C54.555 50.7515 54.7736 50.8061 54.9603 50.9146C55.1479 51.023 55.2914 51.1698 55.3925 51.3541C55.4936 51.5384 55.5434 51.7423 55.5434 51.9657C55.5426 52.0823 55.5393 52.1704 55.5328 52.2308ZM55.0843 51.4585C55.0027 51.3207 54.8918 51.2171 54.7507 51.1462C54.6096 51.076 54.4563 51.0402 54.29 51.0402C54.0404 51.0402 53.8276 51.1201 53.6514 51.2799C53.4753 51.4397 53.3774 51.6656 53.3587 51.9568H55.2017C55.2049 51.7627 55.1658 51.5963 55.0843 51.4585Z" fill="#211D4F"/>
<path d="M58.7721 50.9227C58.9547 51.0377 59.086 51.1837 59.1659 51.3598V50.789H59.5019V53.4769C59.5019 53.7166 59.4497 53.9295 59.3461 54.1154C59.2418 54.3013 59.0974 54.444 58.9115 54.5451C58.7256 54.6463 58.5144 54.696 58.2779 54.696C57.9419 54.696 57.663 54.6161 57.4404 54.4563C57.2177 54.2964 57.0799 54.0787 57.0253 53.8039H57.3564C57.4143 53.9865 57.5235 54.1317 57.685 54.241C57.8465 54.3494 58.0438 54.4041 58.2779 54.4041C58.4475 54.4041 58.5992 54.3682 58.7337 54.2964C58.8683 54.2247 58.9735 54.1178 59.0501 53.9776C59.1268 53.8365 59.1651 53.6701 59.1651 53.4785V52.8302C59.0819 53.0096 58.9498 53.1572 58.7688 53.2738C58.5878 53.3904 58.3741 53.4491 58.1278 53.4491C57.8881 53.4491 57.6728 53.3929 57.4819 53.2811C57.2911 53.1694 57.1427 53.0104 57.0359 52.8057C56.9282 52.601 56.8752 52.3637 56.8752 52.0954C56.8752 51.8263 56.929 51.5906 57.0359 51.3876C57.1427 51.1845 57.2919 51.028 57.4819 50.917C57.672 50.807 57.8872 50.7515 58.1278 50.7515C58.3749 50.7499 58.5894 50.8078 58.7721 50.9227ZM59.0363 51.5425C58.9498 51.3827 58.8324 51.2595 58.6832 51.1731C58.5347 51.0867 58.37 51.0434 58.1914 51.0434C58.0055 51.0434 57.8391 51.085 57.6923 51.1682C57.5447 51.2514 57.4289 51.3721 57.3441 51.5303C57.2593 51.6885 57.2169 51.8769 57.2169 52.0946C57.2169 52.3091 57.2593 52.4975 57.3441 52.6589C57.4289 52.8204 57.5447 52.9435 57.6923 53.0283C57.8391 53.1131 58.0063 53.1556 58.1914 53.1556C58.3708 53.1556 58.5347 53.1123 58.6832 53.0259C58.8316 52.9395 58.9498 52.8163 59.0363 52.6565C59.1227 52.4966 59.1659 52.3107 59.1659 52.0995C59.1651 51.8875 59.1219 51.7024 59.0363 51.5425Z" fill="#211D4F"/>
<path d="M61.0998 50.1588C61.0517 50.1106 61.0281 50.0519 61.0281 49.981C61.0281 49.9108 61.0517 49.8521 61.0998 49.8056C61.1479 49.7592 61.205 49.7363 61.2727 49.7363C61.3396 49.7363 61.3975 49.76 61.4456 49.8056C61.4937 49.8521 61.5174 49.9108 61.5174 49.981C61.5174 50.0511 61.4937 50.1106 61.4456 50.1588C61.3975 50.2069 61.3404 50.2305 61.2727 50.2305C61.2058 50.2305 61.1479 50.2069 61.0998 50.1588ZM61.4407 50.7255V53.3465H61.1047V50.7255H61.4407Z" fill="#211D4F"/>
<path d="M63.2253 53.2403C63.0345 53.1009 62.9285 52.9117 62.9064 52.6711H63.2522C63.2685 52.8187 63.3378 52.9378 63.461 53.0291C63.5841 53.1205 63.7497 53.1661 63.9576 53.1661C64.1403 53.1661 64.283 53.1229 64.3874 53.0365C64.4909 52.95 64.5431 52.8432 64.5431 52.7152C64.5431 52.6255 64.5146 52.5521 64.4567 52.4942C64.3988 52.4363 64.3262 52.3906 64.2381 52.3572C64.1501 52.3237 64.031 52.2878 63.8801 52.2495C63.6852 52.1981 63.5262 52.1468 63.4047 52.0962C63.2832 52.0448 63.1796 51.969 63.0948 51.8679C63.01 51.7667 62.9676 51.6322 62.9676 51.4626C62.9676 51.3345 63.0059 51.2163 63.0826 51.107C63.1593 50.9986 63.2685 50.9121 63.4088 50.8477C63.5499 50.7841 63.7097 50.7515 63.8891 50.7515C64.1705 50.7515 64.398 50.8224 64.5709 50.9651C64.7437 51.1078 64.8367 51.3035 64.8489 51.5531H64.513C64.5032 51.3998 64.4436 51.2758 64.3327 51.1812C64.2226 51.0866 64.071 51.0393 63.8793 51.0393C63.7097 51.0393 63.5719 51.0793 63.4667 51.1592C63.3607 51.2391 63.3085 51.3386 63.3085 51.4569C63.3085 51.5596 63.3395 51.6436 63.4023 51.7088C63.4651 51.7741 63.5425 51.8255 63.6347 51.8622C63.7276 51.8989 63.8524 51.9396 64.009 51.9845C64.1974 52.0359 64.3482 52.0856 64.46 52.1337C64.5717 52.1818 64.6679 52.252 64.7478 52.3449C64.8277 52.4379 64.8693 52.561 64.8726 52.7143C64.8726 52.8554 64.8343 52.981 64.7576 53.0911C64.681 53.2012 64.5733 53.2885 64.4363 53.3529C64.2985 53.4165 64.1403 53.4491 63.9609 53.4491C63.6616 53.4491 63.4153 53.3798 63.2253 53.2403Z" fill="#211D4F"/>
<path d="M66.7535 51.0726V52.6995C66.7535 52.8594 66.7837 52.9703 66.8449 53.0306C66.9052 53.0918 67.0129 53.122 67.1662 53.122H67.4736V53.4098H67.114C66.8775 53.4098 66.7013 53.3544 66.5864 53.2443C66.4714 53.1342 66.4135 52.9523 66.4135 52.6995V51.0726H66.049V50.7897H66.4135V50.1324H66.7543V50.7897H67.4744V51.0726H66.7535Z" fill="#211D4F"/>
<path d="M69.5631 50.886C69.7147 50.7963 69.9015 50.7515 70.1225 50.7515V51.1021H70.0311C69.7881 51.1021 69.5924 51.1674 69.4456 51.2987C69.2988 51.4299 69.2246 51.6493 69.2246 51.9559V53.4197H68.8886V50.7988H69.2246V51.2644C69.298 51.1013 69.4114 50.9749 69.5631 50.886Z" fill="#211D4F"/>
<path d="M73.6414 50.7515L72.0863 54.6063H71.7356L72.2445 53.3586L71.1689 50.7523H71.5383L72.4312 52.9892L73.2948 50.7523H73.6414V50.7515Z" fill="#211D4F"/>
<path d="M74.8344 53.408C74.7879 53.3598 74.7651 53.3011 74.7651 53.2302C74.7651 53.16 74.7879 53.1013 74.8344 53.0548C74.8809 53.0084 74.9388 52.9855 75.0097 52.9855C75.0766 52.9855 75.1337 53.0092 75.1802 53.0548C75.2267 53.1013 75.2495 53.16 75.2495 53.2302C75.2495 53.3003 75.2258 53.3598 75.1802 53.408C75.1337 53.4561 75.0766 53.4797 75.0097 53.4797C74.9388 53.4797 74.8801 53.4553 74.8344 53.408Z" fill="#211D4F"/>
<path d="M77.1248 53.2836C76.9283 53.1735 76.7725 53.0161 76.6592 52.813C76.5458 52.61 76.4887 52.3718 76.4887 52.1003C76.4887 51.8279 76.5466 51.5906 76.6616 51.3876C76.7766 51.1845 76.9332 51.0279 77.1321 50.917C77.3303 50.8069 77.5529 50.7515 77.7992 50.7515C78.0455 50.7515 78.2689 50.8069 78.4687 50.917C78.6685 51.0271 78.8251 51.1845 78.9393 51.3876C79.0526 51.5906 79.1097 51.8287 79.1097 52.1003C79.1097 52.3694 79.0518 52.6059 78.9368 52.8106C78.8218 53.0153 78.6628 53.1727 78.4614 53.2836C78.26 53.3937 78.0357 53.4491 77.7894 53.4491C77.5431 53.4491 77.3213 53.3945 77.1248 53.2836ZM78.2689 53.0389C78.4157 52.9606 78.5356 52.8424 78.6261 52.6834C78.7174 52.5251 78.7631 52.3303 78.7631 52.1003C78.7631 51.8695 78.7183 51.6754 78.6285 51.5172C78.5388 51.359 78.4206 51.2408 78.273 51.1617C78.1254 51.0834 77.9656 51.0442 77.7927 51.0442C77.6198 51.0442 77.46 51.0834 77.3123 51.1617C77.1647 51.2399 77.0473 51.3582 76.9592 51.5172C76.8712 51.6754 76.8271 51.8703 76.8271 52.1003C76.8271 52.3311 76.8712 52.5251 76.9592 52.6834C77.0473 52.8416 77.1639 52.9598 77.3099 53.0389C77.4551 53.1172 77.6149 53.1563 77.7878 53.1563C77.9623 53.1563 78.1221 53.1172 78.2689 53.0389Z" fill="#211D4F"/>
<path d="M81.2669 50.886C81.4186 50.7963 81.6054 50.7515 81.8263 50.7515V51.1021H81.735C81.492 51.1021 81.2963 51.1674 81.1495 51.2987C81.0027 51.4299 80.9285 51.6493 80.9285 51.9559V53.4197H80.5925V50.7988H80.9285V51.2644C81.0019 51.1013 81.1144 50.9749 81.2669 50.886Z" fill="#211D4F"/>
<path d="M84.9253 50.9227C85.108 51.0377 85.2392 51.1837 85.3192 51.3598V50.789H85.6551V53.4769C85.6551 53.7166 85.6029 53.9295 85.4994 54.1154C85.395 54.3013 85.2507 54.444 85.0647 54.5451C84.8788 54.6463 84.6676 54.696 84.4311 54.696C84.0951 54.696 83.8162 54.6161 83.5936 54.4563C83.371 54.2964 83.2331 54.0787 83.1785 53.8039H83.5096C83.5675 53.9865 83.6768 54.1317 83.8382 54.241C83.9997 54.3494 84.197 54.4041 84.4311 54.4041C84.6007 54.4041 84.7524 54.3682 84.887 54.2964C85.0215 54.2247 85.1267 54.1178 85.2034 53.9776C85.28 53.8365 85.3183 53.6701 85.3183 53.4785V52.8302C85.2352 53.0096 85.1031 53.1572 84.922 53.2738C84.741 53.3904 84.5273 53.4491 84.281 53.4491C84.0413 53.4491 83.826 53.3929 83.6352 53.2811C83.4444 53.1694 83.2959 53.0104 83.1891 52.8057C83.0815 52.601 83.0285 52.3637 83.0285 52.0954C83.0285 51.8263 83.0823 51.5906 83.1891 51.3876C83.2959 51.1845 83.4452 51.028 83.6352 50.917C83.8252 50.807 84.0405 50.7515 84.281 50.7515C84.529 50.7499 84.7434 50.8078 84.9253 50.9227ZM85.1895 51.5425C85.1031 51.3827 84.9856 51.2595 84.8364 51.1731C84.6872 51.0867 84.5232 51.0434 84.3447 51.0434C84.1587 51.0434 83.9924 51.085 83.8456 51.1682C83.698 51.2514 83.5822 51.3721 83.4974 51.5303C83.4126 51.6885 83.3701 51.8769 83.3701 52.0946C83.3701 52.3091 83.4126 52.4975 83.4974 52.6589C83.5822 52.8204 83.698 52.9435 83.8456 53.0283C83.9924 53.1131 84.1595 53.1556 84.3447 53.1556C84.5241 53.1556 84.688 53.1123 84.8364 53.0259C84.9848 52.9395 85.1031 52.8163 85.1895 52.6565C85.2759 52.4966 85.3192 52.3107 85.3192 52.0995C85.3192 51.8875 85.2759 51.7024 85.1895 51.5425Z" fill="#211D4F"/>
<path d="M10.9319 35.3418V47.924H8.01492V35.3418H10.9319Z" fill="#211D4F"/>
<path d="M21.3743 36.9051C21.4143 36.945 21.4543 36.985 21.4934 37.0241C21.5334 36.9842 21.5733 36.9442 21.6125 36.9051C22.6547 35.8629 23.9089 35.3418 25.3759 35.3418C26.843 35.3418 28.0972 35.8629 29.1394 36.9051C30.1881 37.9473 30.7125 39.2015 30.7125 40.6686V47.8962H27.7955V40.6686C27.7955 40.0048 27.5566 39.4372 27.0787 38.9658C26.6073 38.4879 26.0397 38.249 25.3759 38.249C24.7121 38.249 24.1413 38.4879 23.6634 38.9658C23.1921 39.4372 22.9564 40.0048 22.9564 40.6686V47.8962H20.0296V40.6686C20.0296 40.0048 19.7907 39.4372 19.3128 38.9658C18.8414 38.4879 18.2739 38.249 17.6101 38.249C16.9462 38.249 16.3754 38.4879 15.8975 38.9658C15.4262 39.4372 15.1905 40.0048 15.1905 40.6686V47.8962H12.2735V40.6686C12.2735 39.2015 12.7946 37.9473 13.8368 36.9051C14.879 35.8629 16.1365 35.3418 17.6101 35.3418C19.0779 35.3418 20.3321 35.8629 21.3743 36.9051Z" fill="#211D4F"/>
<path d="M41.1916 36.9051C41.2316 36.945 41.2716 36.985 41.3107 37.0241C41.3507 36.9842 41.3906 36.9442 41.4298 36.9051C42.4719 35.8629 43.7262 35.3418 45.1932 35.3418C46.6603 35.3418 47.9145 35.8629 48.9567 36.9051C50.0054 37.9473 50.5298 39.2015 50.5298 40.6686V47.8962H47.6128V40.6686C47.6128 40.0048 47.3738 39.4372 46.896 38.9658C46.4246 38.4879 45.857 38.249 45.1932 38.249C44.5294 38.249 43.9586 38.4879 43.4807 38.9658C43.0094 39.4372 42.7737 40.0048 42.7737 40.6686V47.8962H39.8469V40.6686C39.8469 40.0048 39.608 39.4372 39.1301 38.9658C38.6587 38.4879 38.0911 38.249 37.4273 38.249C36.7635 38.249 36.1927 38.4879 35.7148 38.9658C35.2435 39.4372 35.0078 40.0048 35.0078 40.6686V47.8962H32.0908V40.6686C32.0908 39.2015 32.6119 37.9473 33.6541 36.9051C34.6963 35.8629 35.9538 35.3418 37.4273 35.3418C38.8952 35.3418 40.1494 35.8629 41.1916 36.9051Z" fill="#211D4F"/>
<path d="M58.2493 48.0954C56.4112 48.0954 54.8944 47.4552 53.6997 46.1741C52.505 44.893 51.9081 43.3468 51.9081 41.5348V35.5417H54.8242V41.366C54.8242 42.3878 55.1031 43.284 55.6601 44.0538C56.2179 44.8236 57.0799 45.2086 58.2485 45.2086C59.1447 45.2086 59.9406 44.8897 60.6379 44.2528C61.3351 43.6159 61.6833 42.8396 61.6833 41.9229V35.5417H64.6003V41.5348C64.6003 43.3264 64.0083 44.8685 62.8234 46.1586C61.6393 47.4503 60.1143 48.0954 58.2493 48.0954Z" fill="#211D4F"/>
<path d="M72.5252 35.3426V38.2392C72.4518 38.2327 72.3792 38.2294 72.3058 38.2294C71.0842 38.2294 70.2051 38.6323 69.6677 39.4388C69.1303 40.2453 68.8612 41.1823 68.8612 42.2514V47.0098V47.8954H65.9442V42.1014C65.9442 40.2633 66.5216 38.6771 67.6763 37.343C68.831 36.0089 70.3739 35.3418 72.3058 35.3418C72.3792 35.3426 72.4518 35.3426 72.5252 35.3426Z" fill="#211D4F"/>
<path d="M85.7705 42.9919H76.5351C76.6109 43.8783 77.1728 44.4133 77.4925 44.6905C77.8929 45.0379 78.7467 45.444 79.5679 45.444C80.7536 45.444 81.5976 44.949 82.0992 43.9599H85.5422C85.1776 45.1415 84.4779 46.1127 83.4439 46.8728C82.4099 47.6336 81.141 48.0136 79.6356 48.0136C78.4189 48.0136 77.3285 47.7519 76.363 47.2275C75.3975 46.7032 74.6448 45.9611 74.1057 45.0012C73.5659 44.0414 73.296 42.934 73.296 41.6781C73.296 40.4084 73.5618 39.2928 74.0943 38.333C74.626 37.3732 75.3714 36.6343 76.3288 36.1173C77.2861 35.6003 78.3887 35.3418 79.6356 35.3418C80.836 35.3418 81.9124 35.593 82.8625 36.0953C83.8125 36.5976 84.5497 37.3104 85.0741 38.2335C85.5984 39.1566 85.861 40.5267 85.861 41.4123C85.8618 41.8543 85.8316 42.6371 85.7705 42.9919ZM82.5558 40.525C82.5403 39.7275 82.2443 39.089 81.6661 38.6086C81.088 38.1291 80.3809 37.8886 79.545 37.8886C78.754 37.8886 78.0894 38.121 77.5495 38.5866C77.0097 39.0523 76.6794 39.6981 76.5579 40.525H82.5558Z" fill="#211D4F"/>
<path d="M91.3572 50.4846C88.4606 50.4944 88.4606 50.4846 88.4606 50.4846C88.5992 51.8049 89.1929 52.5584 90.2424 53.3225C91.2912 54.0866 92.6359 54.4691 94.275 54.4691C95.4975 54.4691 96.5396 54.222 97.4016 53.7294C98.2628 53.236 98.9095 52.569 99.34 51.729C99.6948 51.0359 99.981 50.1111 99.981 48.8634H99.9851C99.981 47.7111 99.9786 48.3048 99.9786 46.77V41.723C99.9786 39.964 99.3629 38.461 98.1315 37.2133C96.9001 35.9656 95.3988 35.3418 93.6267 35.3418C91.8742 35.3418 90.3794 35.9607 89.1415 37.1986C87.9036 38.4365 87.2847 39.9313 87.2847 41.6838C87.2847 43.4363 87.9036 44.9327 89.1415 46.1739C90.3794 47.4151 91.8742 48.0357 93.6267 48.0357C94.894 48.0357 96.0389 47.7005 97.0616 47.0302C97.0876 47.7282 97.1015 48.2624 97.1007 48.7688C97.1007 49.7971 96.7827 50.6607 96.255 51.168C95.7266 51.6752 94.9886 52.0332 94.1919 52.025C93.7287 52.0177 92.1083 52.0307 91.3572 50.4846ZM96.0756 44.1311C95.3988 44.808 94.5825 45.1464 93.6267 45.1464C92.6775 45.1464 91.8645 44.808 91.1876 44.1311C90.5107 43.4543 90.1723 42.6379 90.1723 41.6822C90.1723 40.7264 90.5107 39.9118 91.1876 39.2382C91.8645 38.5646 92.6775 38.2278 93.6267 38.2278C94.5825 38.2278 95.3988 38.5646 96.0756 39.2382C96.7525 39.9118 97.0909 40.7264 97.0909 41.6822C97.0909 42.6379 96.7525 43.4543 96.0756 44.1311Z" fill="#211D4F"/>
</svg>
